<mxfile host="app.diagrams.net" modified="2020-08-06T15:24:53.326Z" agent="5.0 (X11; Linux x86_64) AppleWebKit/537.36 (KHTML, like Gecko) Chrome/84.0.4147.89 Safari/537.36" etag="q1vYfUVWELIEeW4nvGPF" version="13.6.0" type="github">
  <diagram id="dVoCBdO5zc-kdHy0kOgf" name="Página-1">
    <mxGraphModel dx="1676" dy="503" grid="1" gridSize="10" guides="1" tooltips="1" connect="1" arrows="1" fold="1" page="1" pageScale="1" pageWidth="827" pageHeight="1169" math="0" shadow="0">
      <root>
        <mxCell id="0" />
        <mxCell id="1" parent="0" />
        <mxCell id="jfRTJ_0rn66j7NU5pKJY-65" value="" style="rounded=1;whiteSpace=wrap;html=1;fontSize=24;fillColor=none;" vertex="1" parent="1">
          <mxGeometry x="1251.25" y="860" width="278.75" height="250" as="geometry" />
        </mxCell>
        <mxCell id="jfRTJ_0rn66j7NU5pKJY-1" value="Spring Framework" style="rounded=0;whiteSpace=wrap;html=1;" vertex="1" parent="1">
          <mxGeometry x="80" y="80" width="120" height="60" as="geometry" />
        </mxCell>
        <mxCell id="jfRTJ_0rn66j7NU5pKJY-2" value="JPA/Hibernate" style="rounded=0;whiteSpace=wrap;html=1;" vertex="1" parent="1">
          <mxGeometry x="80" y="160" width="120" height="60" as="geometry" />
        </mxCell>
        <mxCell id="jfRTJ_0rn66j7NU5pKJY-3" value="MySQL" style="rounded=0;whiteSpace=wrap;html=1;" vertex="1" parent="1">
          <mxGeometry x="80" y="240" width="120" height="60" as="geometry" />
        </mxCell>
        <mxCell id="jfRTJ_0rn66j7NU5pKJY-4" value="JUnit" style="rounded=0;whiteSpace=wrap;html=1;" vertex="1" parent="1">
          <mxGeometry x="230" y="80" width="120" height="60" as="geometry" />
        </mxCell>
        <mxCell id="jfRTJ_0rn66j7NU5pKJY-5" value="..." style="rounded=0;whiteSpace=wrap;html=1;" vertex="1" parent="1">
          <mxGeometry x="230" y="170" width="120" height="60" as="geometry" />
        </mxCell>
        <mxCell id="jfRTJ_0rn66j7NU5pKJY-6" value="Dependência" style="rounded=0;whiteSpace=wrap;html=1;fillColor=#fff2cc;strokeColor=#d6b656;" vertex="1" parent="1">
          <mxGeometry x="160" y="30" width="120" height="30" as="geometry" />
        </mxCell>
        <mxCell id="jfRTJ_0rn66j7NU5pKJY-7" value="entrar no site da dependência" style="rounded=0;whiteSpace=wrap;html=1;fillColor=#fff2cc;strokeColor=#d6b656;" vertex="1" parent="1">
          <mxGeometry x="490" y="60" width="120" height="30" as="geometry" />
        </mxCell>
        <mxCell id="jfRTJ_0rn66j7NU5pKJY-8" value="procurar a versão" style="rounded=0;whiteSpace=wrap;html=1;fillColor=#fff2cc;strokeColor=#d6b656;" vertex="1" parent="1">
          <mxGeometry x="490" y="120" width="120" height="30" as="geometry" />
        </mxCell>
        <mxCell id="jfRTJ_0rn66j7NU5pKJY-9" value="fazer o download" style="rounded=0;whiteSpace=wrap;html=1;fillColor=#fff2cc;strokeColor=#d6b656;" vertex="1" parent="1">
          <mxGeometry x="490" y="175" width="120" height="30" as="geometry" />
        </mxCell>
        <mxCell id="jfRTJ_0rn66j7NU5pKJY-10" value="&lt;meta charset=&quot;utf-8&quot;&gt;&lt;span style=&quot;color: rgb(0, 0, 0); font-family: helvetica; font-size: 12px; font-style: normal; font-weight: 400; letter-spacing: normal; text-align: center; text-indent: 0px; text-transform: none; word-spacing: 0px; background-color: rgb(248, 249, 250); display: inline; float: none;&quot;&gt;descompactar&lt;/span&gt;" style="rounded=0;whiteSpace=wrap;html=1;fillColor=#fff2cc;strokeColor=#d6b656;" vertex="1" parent="1">
          <mxGeometry x="490" y="230" width="120" height="30" as="geometry" />
        </mxCell>
        <mxCell id="jfRTJ_0rn66j7NU5pKJY-11" value="&lt;span style=&quot;color: rgb(0 , 0 , 0) ; font-family: &amp;#34;helvetica&amp;#34; ; font-size: 12px ; font-style: normal ; font-weight: 400 ; letter-spacing: normal ; text-align: center ; text-indent: 0px ; text-transform: none ; word-spacing: 0px ; background-color: rgb(248 , 249 , 250) ; display: inline ; float: none&quot;&gt;copiar todas os jars&lt;/span&gt;" style="rounded=0;whiteSpace=wrap;html=1;fillColor=#fff2cc;strokeColor=#d6b656;" vertex="1" parent="1">
          <mxGeometry x="490" y="290" width="120" height="30" as="geometry" />
        </mxCell>
        <mxCell id="jfRTJ_0rn66j7NU5pKJY-12" value="&lt;span style=&quot;color: rgb(0 , 0 , 0) ; font-family: &amp;#34;helvetica&amp;#34; ; font-size: 12px ; font-style: normal ; font-weight: 400 ; letter-spacing: normal ; text-align: center ; text-indent: 0px ; text-transform: none ; word-spacing: 0px ; background-color: rgb(248 , 249 , 250) ; display: inline ; float: none&quot;&gt;colar dentro do projeto&lt;/span&gt;" style="rounded=0;whiteSpace=wrap;html=1;fillColor=#fff2cc;strokeColor=#d6b656;" vertex="1" parent="1">
          <mxGeometry x="490" y="350" width="120" height="30" as="geometry" />
        </mxCell>
        <mxCell id="jfRTJ_0rn66j7NU5pKJY-13" value="&lt;span style=&quot;color: rgb(0 , 0 , 0) ; font-family: &amp;#34;helvetica&amp;#34; ; font-size: 12px ; font-style: normal ; font-weight: 400 ; letter-spacing: normal ; text-align: center ; text-indent: 0px ; text-transform: none ; word-spacing: 0px ; background-color: rgb(248 , 249 , 250) ; display: inline ; float: none&quot;&gt;ajustar o build path&lt;/span&gt;" style="rounded=0;whiteSpace=wrap;html=1;fillColor=#fff2cc;strokeColor=#d6b656;" vertex="1" parent="1">
          <mxGeometry x="490" y="410" width="120" height="30" as="geometry" />
        </mxCell>
        <mxCell id="jfRTJ_0rn66j7NU5pKJY-16" style="edgeStyle=orthogonalEdgeStyle;rounded=0;orthogonalLoop=1;jettySize=auto;html=1;entryX=0.5;entryY=1;entryDx=0;entryDy=0;" edge="1" parent="1" source="jfRTJ_0rn66j7NU5pKJY-14" target="jfRTJ_0rn66j7NU5pKJY-15">
          <mxGeometry relative="1" as="geometry" />
        </mxCell>
        <mxCell id="jfRTJ_0rn66j7NU5pKJY-14" value="&lt;font face=&quot;helvetica&quot;&gt;jars do hibernate + jars que o hibernate precisa como dependência&lt;/font&gt;" style="rounded=0;whiteSpace=wrap;html=1;fillColor=#fff2cc;strokeColor=#d6b656;" vertex="1" parent="1">
          <mxGeometry x="650" y="275" width="120" height="60" as="geometry" />
        </mxCell>
        <mxCell id="jfRTJ_0rn66j7NU5pKJY-15" value="&lt;font face=&quot;helvetica&quot;&gt;byte buddy 1.10.10&lt;/font&gt;" style="rounded=0;whiteSpace=wrap;html=1;fillColor=#fff2cc;strokeColor=#d6b656;" vertex="1" parent="1">
          <mxGeometry x="650" y="160" width="120" height="60" as="geometry" />
        </mxCell>
        <mxCell id="jfRTJ_0rn66j7NU5pKJY-19" style="edgeStyle=orthogonalEdgeStyle;rounded=0;orthogonalLoop=1;jettySize=auto;html=1;entryX=0.5;entryY=1;entryDx=0;entryDy=0;" edge="1" parent="1" source="jfRTJ_0rn66j7NU5pKJY-17" target="jfRTJ_0rn66j7NU5pKJY-18">
          <mxGeometry relative="1" as="geometry" />
        </mxCell>
        <mxCell id="jfRTJ_0rn66j7NU5pKJY-17" value="&lt;font face=&quot;helvetica&quot;&gt;jars do spring + jars que o spring precisa como dependência&lt;/font&gt;" style="rounded=0;whiteSpace=wrap;html=1;fillColor=#fff2cc;strokeColor=#d6b656;" vertex="1" parent="1">
          <mxGeometry x="827" y="275" width="120" height="60" as="geometry" />
        </mxCell>
        <mxCell id="jfRTJ_0rn66j7NU5pKJY-18" value="&lt;font face=&quot;helvetica&quot;&gt;byte buddy 1.20.10&lt;/font&gt;" style="rounded=0;whiteSpace=wrap;html=1;fillColor=#fff2cc;strokeColor=#d6b656;" vertex="1" parent="1">
          <mxGeometry x="827" y="160" width="120" height="60" as="geometry" />
        </mxCell>
        <mxCell id="jfRTJ_0rn66j7NU5pKJY-20" value="&lt;font face=&quot;helvetica&quot;&gt;/WEB-INF/lib&lt;/font&gt;" style="rounded=0;whiteSpace=wrap;html=1;fillColor=#e1d5e7;strokeColor=#9673a6;" vertex="1" parent="1">
          <mxGeometry x="740" y="80" width="120" height="60" as="geometry" />
        </mxCell>
        <mxCell id="jfRTJ_0rn66j7NU5pKJY-21" value="&lt;font face=&quot;helvetica&quot;&gt;ClassPath&lt;/font&gt;" style="rounded=0;whiteSpace=wrap;html=1;fillColor=#d5e8d4;strokeColor=#82b366;" vertex="1" parent="1">
          <mxGeometry x="970" y="80" width="120" height="60" as="geometry" />
        </mxCell>
        <mxCell id="jfRTJ_0rn66j7NU5pKJY-22" value="" style="verticalLabelPosition=bottom;verticalAlign=top;html=1;shape=mxgraph.basic.tick" vertex="1" parent="1">
          <mxGeometry x="850" y="120" width="20" height="20" as="geometry" />
        </mxCell>
        <mxCell id="jfRTJ_0rn66j7NU5pKJY-24" value="" style="shape=image;html=1;verticalAlign=top;verticalLabelPosition=bottom;labelBackgroundColor=#ffffff;imageAspect=0;aspect=fixed;image=https://cdn3.iconfinder.com/data/icons/virtual-notebook/16/button_close-128.png" vertex="1" parent="1">
          <mxGeometry x="1070" y="120" width="30" height="30" as="geometry" />
        </mxCell>
        <mxCell id="jfRTJ_0rn66j7NU5pKJY-27" style="edgeStyle=orthogonalEdgeStyle;rounded=0;orthogonalLoop=1;jettySize=auto;html=1;entryX=0;entryY=0.5;entryDx=0;entryDy=0;" edge="1" parent="1" source="jfRTJ_0rn66j7NU5pKJY-25" target="jfRTJ_0rn66j7NU5pKJY-26">
          <mxGeometry relative="1" as="geometry" />
        </mxCell>
        <mxCell id="jfRTJ_0rn66j7NU5pKJY-25" value="Sistema gerenciador de dependência&lt;br&gt;- Maven&lt;br&gt;- Gradle&lt;br&gt;- Ivy" style="rounded=0;whiteSpace=wrap;html=1;fillColor=#f8cecc;strokeColor=#b85450;verticalAlign=top;" vertex="1" parent="1">
          <mxGeometry x="760" y="370" width="130" height="90" as="geometry" />
        </mxCell>
        <mxCell id="jfRTJ_0rn66j7NU5pKJY-29" style="edgeStyle=orthogonalEdgeStyle;rounded=0;orthogonalLoop=1;jettySize=auto;html=1;entryX=0.5;entryY=0;entryDx=0;entryDy=0;" edge="1" parent="1" source="jfRTJ_0rn66j7NU5pKJY-26" target="jfRTJ_0rn66j7NU5pKJY-28">
          <mxGeometry relative="1" as="geometry" />
        </mxCell>
        <mxCell id="jfRTJ_0rn66j7NU5pKJY-32" style="edgeStyle=orthogonalEdgeStyle;rounded=0;orthogonalLoop=1;jettySize=auto;html=1;entryX=0.024;entryY=0.487;entryDx=0;entryDy=0;entryPerimeter=0;" edge="1" parent="1" source="jfRTJ_0rn66j7NU5pKJY-26" target="jfRTJ_0rn66j7NU5pKJY-30">
          <mxGeometry relative="1" as="geometry" />
        </mxCell>
        <mxCell id="jfRTJ_0rn66j7NU5pKJY-36" style="edgeStyle=orthogonalEdgeStyle;rounded=0;orthogonalLoop=1;jettySize=auto;html=1;exitX=0.5;exitY=0;exitDx=0;exitDy=0;" edge="1" parent="1" source="jfRTJ_0rn66j7NU5pKJY-26" target="jfRTJ_0rn66j7NU5pKJY-35">
          <mxGeometry relative="1" as="geometry">
            <mxPoint x="1012" y="390" as="sourcePoint" />
          </mxGeometry>
        </mxCell>
        <mxCell id="jfRTJ_0rn66j7NU5pKJY-26" value="Maven&lt;br&gt;&amp;lt;xml /&amp;gt;" style="rounded=0;whiteSpace=wrap;html=1;fillColor=#f8cecc;strokeColor=#b85450;verticalAlign=top;" vertex="1" parent="1">
          <mxGeometry x="947" y="400" width="130" height="60" as="geometry" />
        </mxCell>
        <mxCell id="jfRTJ_0rn66j7NU5pKJY-38" style="edgeStyle=orthogonalEdgeStyle;rounded=0;orthogonalLoop=1;jettySize=auto;html=1;entryX=0;entryY=0.5;entryDx=0;entryDy=0;entryPerimeter=0;exitX=0.5;exitY=1;exitDx=0;exitDy=0;" edge="1" parent="1" source="jfRTJ_0rn66j7NU5pKJY-28" target="jfRTJ_0rn66j7NU5pKJY-37">
          <mxGeometry relative="1" as="geometry">
            <mxPoint x="1049.9999999999998" y="620" as="targetPoint" />
          </mxGeometry>
        </mxCell>
        <mxCell id="jfRTJ_0rn66j7NU5pKJY-28" value="pom.xml&lt;br&gt;Project Object Manager" style="rounded=0;whiteSpace=wrap;html=1;fillColor=#f8cecc;strokeColor=#b85450;verticalAlign=top;" vertex="1" parent="1">
          <mxGeometry x="958.5" y="500" width="107" height="60" as="geometry" />
        </mxCell>
        <mxCell id="jfRTJ_0rn66j7NU5pKJY-34" style="edgeStyle=orthogonalEdgeStyle;rounded=0;orthogonalLoop=1;jettySize=auto;html=1;entryX=0.5;entryY=1;entryDx=0;entryDy=0;" edge="1" parent="1" source="jfRTJ_0rn66j7NU5pKJY-30" target="jfRTJ_0rn66j7NU5pKJY-33">
          <mxGeometry relative="1" as="geometry" />
        </mxCell>
        <mxCell id="jfRTJ_0rn66j7NU5pKJY-30" value="" style="html=1;aspect=fixed;strokeColor=none;shadow=0;align=center;verticalAlign=top;fillColor=#3B8DF1;shape=mxgraph.gcp2.repository_3" vertex="1" parent="1">
          <mxGeometry x="1200" y="420" width="100" height="100" as="geometry" />
        </mxCell>
        <mxCell id="jfRTJ_0rn66j7NU5pKJY-31" value="Maven Central" style="text;html=1;align=center;verticalAlign=middle;resizable=0;points=[];autosize=1;" vertex="1" parent="1">
          <mxGeometry x="1205" y="530" width="90" height="20" as="geometry" />
        </mxCell>
        <mxCell id="jfRTJ_0rn66j7NU5pKJY-33" value="Pasta onde o maven salva suas dependências&lt;br&gt;~/.m2" style="rounded=0;whiteSpace=wrap;html=1;fillColor=#f8cecc;strokeColor=#b85450;verticalAlign=top;" vertex="1" parent="1">
          <mxGeometry x="1340" y="320" width="150" height="70" as="geometry" />
        </mxCell>
        <mxCell id="jfRTJ_0rn66j7NU5pKJY-35" value="" style="dashed=0;outlineConnect=0;html=1;align=center;labelPosition=center;verticalLabelPosition=bottom;verticalAlign=top;shape=mxgraph.webicons.github;gradientColor=#DFDEDE" vertex="1" parent="1">
          <mxGeometry x="1065.5" y="217.6" width="102.4" height="102.4" as="geometry" />
        </mxCell>
        <mxCell id="jfRTJ_0rn66j7NU5pKJY-37" value="" style="pointerEvents=1;shadow=0;dashed=0;html=1;strokeColor=none;labelPosition=center;verticalLabelPosition=bottom;verticalAlign=top;align=center;fillColor=#505050;shape=mxgraph.mscae.oms.dependency_monitor" vertex="1" parent="1">
          <mxGeometry x="1077" y="570" width="150" height="130" as="geometry" />
        </mxCell>
        <mxCell id="jfRTJ_0rn66j7NU5pKJY-39" value="" style="shape=image;verticalLabelPosition=bottom;labelBackgroundColor=#ffffff;verticalAlign=top;aspect=fixed;imageAspect=0;image=https://static.vecteezy.com/system/resources/thumbnails/000/554/747/small/umbrella_010.jpg;" vertex="1" parent="1">
          <mxGeometry x="1520" y="580" width="140" height="140" as="geometry" />
        </mxCell>
        <mxCell id="jfRTJ_0rn66j7NU5pKJY-40" value="org.springframework" style="text;html=1;strokeColor=#6c8ebf;align=center;verticalAlign=middle;whiteSpace=wrap;rounded=0;fontSize=24;fillColor=#dae8fc;" vertex="1" parent="1">
          <mxGeometry x="1431.25" y="500" width="307.5" height="70" as="geometry" />
        </mxCell>
        <mxCell id="jfRTJ_0rn66j7NU5pKJY-41" value="boot" style="text;html=1;strokeColor=#6c8ebf;align=center;verticalAlign=middle;whiteSpace=wrap;rounded=0;fontSize=24;fillColor=#dae8fc;" vertex="1" parent="1">
          <mxGeometry x="1380" y="720" width="170" height="110" as="geometry" />
        </mxCell>
        <mxCell id="jfRTJ_0rn66j7NU5pKJY-42" value="data" style="text;html=1;strokeColor=#6c8ebf;align=center;verticalAlign=middle;whiteSpace=wrap;rounded=0;fontSize=24;fillColor=#dae8fc;" vertex="1" parent="1">
          <mxGeometry x="1590" y="720" width="170" height="110" as="geometry" />
        </mxCell>
        <mxCell id="jfRTJ_0rn66j7NU5pKJY-43" value="spring-orm" style="text;html=1;strokeColor=#6c8ebf;align=center;verticalAlign=middle;whiteSpace=wrap;rounded=0;fontSize=24;fillColor=#dae8fc;" vertex="1" parent="1">
          <mxGeometry x="1790" y="720" width="170" height="110" as="geometry" />
        </mxCell>
        <mxCell id="jfRTJ_0rn66j7NU5pKJY-44" value="...." style="text;html=1;strokeColor=#6c8ebf;align=center;verticalAlign=middle;whiteSpace=wrap;rounded=0;fontSize=24;fillColor=#dae8fc;" vertex="1" parent="1">
          <mxGeometry x="1560" y="860" width="170" height="110" as="geometry" />
        </mxCell>
        <mxCell id="jfRTJ_0rn66j7NU5pKJY-47" value="spring-orm&lt;br&gt;artifactId" style="text;html=1;strokeColor=#6c8ebf;align=center;verticalAlign=middle;whiteSpace=wrap;rounded=0;fontSize=24;fillColor=#dae8fc;" vertex="1" parent="1">
          <mxGeometry x="1870" y="475" width="170" height="110" as="geometry" />
        </mxCell>
        <mxCell id="jfRTJ_0rn66j7NU5pKJY-48" value="3.2.9.RELEASE" style="text;html=1;strokeColor=#6c8ebf;align=center;verticalAlign=middle;whiteSpace=wrap;rounded=0;fontSize=24;fillColor=#dae8fc;" vertex="1" parent="1">
          <mxGeometry x="2140" y="380" width="250" height="50" as="geometry" />
        </mxCell>
        <mxCell id="jfRTJ_0rn66j7NU5pKJY-49" value="4.2.9.RELEASE" style="text;html=1;strokeColor=#6c8ebf;align=center;verticalAlign=middle;whiteSpace=wrap;rounded=0;fontSize=24;fillColor=#dae8fc;" vertex="1" parent="1">
          <mxGeometry x="2140" y="470" width="250" height="50" as="geometry" />
        </mxCell>
        <mxCell id="jfRTJ_0rn66j7NU5pKJY-50" value="..." style="text;html=1;strokeColor=#6c8ebf;align=center;verticalAlign=middle;whiteSpace=wrap;rounded=0;fontSize=24;fillColor=#dae8fc;" vertex="1" parent="1">
          <mxGeometry x="2140" y="560" width="250" height="50" as="geometry" />
        </mxCell>
        <mxCell id="jfRTJ_0rn66j7NU5pKJY-51" value="5.2.9.RELEASE" style="text;html=1;strokeColor=#6c8ebf;align=center;verticalAlign=middle;whiteSpace=wrap;rounded=0;fontSize=24;fillColor=#dae8fc;" vertex="1" parent="1">
          <mxGeometry x="2140" y="640" width="250" height="50" as="geometry" />
        </mxCell>
        <mxCell id="jfRTJ_0rn66j7NU5pKJY-52" value="version" style="text;html=1;strokeColor=#9673a6;align=center;verticalAlign=middle;whiteSpace=wrap;rounded=0;fontSize=24;fillColor=#e1d5e7;" vertex="1" parent="1">
          <mxGeometry x="2180" y="300" width="170" height="50" as="geometry" />
        </mxCell>
        <mxCell id="jfRTJ_0rn66j7NU5pKJY-53" value="groupId" style="text;html=1;strokeColor=#9673a6;align=center;verticalAlign=middle;whiteSpace=wrap;rounded=0;fontSize=24;fillColor=#e1d5e7;" vertex="1" parent="1">
          <mxGeometry x="1484" y="430" width="170" height="50" as="geometry" />
        </mxCell>
        <mxCell id="jfRTJ_0rn66j7NU5pKJY-54" value="artifactId" style="text;html=1;strokeColor=#9673a6;align=center;verticalAlign=middle;whiteSpace=wrap;rounded=0;fontSize=24;fillColor=#e1d5e7;" vertex="1" parent="1">
          <mxGeometry x="1568.75" y="1010" width="170" height="50" as="geometry" />
        </mxCell>
        <mxCell id="jfRTJ_0rn66j7NU5pKJY-55" value="version" style="text;html=1;strokeColor=#9673a6;align=center;verticalAlign=middle;whiteSpace=wrap;rounded=0;fontSize=24;fillColor=#e1d5e7;" vertex="1" parent="1">
          <mxGeometry x="2200" y="950" width="170" height="50" as="geometry" />
        </mxCell>
        <mxCell id="jfRTJ_0rn66j7NU5pKJY-56" value="groupId" style="text;html=1;strokeColor=#9673a6;align=center;verticalAlign=middle;whiteSpace=wrap;rounded=0;fontSize=24;fillColor=#e1d5e7;" vertex="1" parent="1">
          <mxGeometry x="2200" y="800" width="170" height="50" as="geometry" />
        </mxCell>
        <mxCell id="jfRTJ_0rn66j7NU5pKJY-57" value="artifactId" style="text;html=1;strokeColor=#9673a6;align=center;verticalAlign=middle;whiteSpace=wrap;rounded=0;fontSize=24;fillColor=#e1d5e7;" vertex="1" parent="1">
          <mxGeometry x="2200" y="870" width="170" height="50" as="geometry" />
        </mxCell>
        <mxCell id="jfRTJ_0rn66j7NU5pKJY-59" style="edgeStyle=orthogonalEdgeStyle;rounded=0;orthogonalLoop=1;jettySize=auto;html=1;exitX=0.5;exitY=0;exitDx=0;exitDy=0;" edge="1" parent="1" target="jfRTJ_0rn66j7NU5pKJY-63" source="jfRTJ_0rn66j7NU5pKJY-64">
          <mxGeometry relative="1" as="geometry">
            <mxPoint x="1161.5" y="1015" as="sourcePoint" />
          </mxGeometry>
        </mxCell>
        <mxCell id="jfRTJ_0rn66j7NU5pKJY-60" value="&lt;font face=&quot;helvetica&quot;&gt;byte buddy 1.10.10&lt;/font&gt;" style="rounded=0;whiteSpace=wrap;html=1;fillColor=#fff2cc;strokeColor=#d6b656;" vertex="1" parent="1">
          <mxGeometry x="1101.5" y="900" width="120" height="60" as="geometry" />
        </mxCell>
        <mxCell id="jfRTJ_0rn66j7NU5pKJY-61" style="edgeStyle=orthogonalEdgeStyle;rounded=0;orthogonalLoop=1;jettySize=auto;html=1;entryX=0.5;entryY=1;entryDx=0;entryDy=0;" edge="1" parent="1" source="jfRTJ_0rn66j7NU5pKJY-62" target="jfRTJ_0rn66j7NU5pKJY-63">
          <mxGeometry relative="1" as="geometry" />
        </mxCell>
        <mxCell id="jfRTJ_0rn66j7NU5pKJY-62" value="&lt;font face=&quot;helvetica&quot;&gt;jars do spring + jars que o spring precisa como dependência&lt;/font&gt;" style="rounded=0;whiteSpace=wrap;html=1;fillColor=#fff2cc;strokeColor=#d6b656;" vertex="1" parent="1">
          <mxGeometry x="1380" y="1015" width="120" height="60" as="geometry" />
        </mxCell>
        <mxCell id="jfRTJ_0rn66j7NU5pKJY-63" value="&lt;font face=&quot;helvetica&quot;&gt;byte buddy 1.20.10&lt;/font&gt;" style="rounded=0;whiteSpace=wrap;html=1;fillColor=#fff2cc;strokeColor=#d6b656;" vertex="1" parent="1">
          <mxGeometry x="1278.5" y="900" width="120" height="60" as="geometry" />
        </mxCell>
        <mxCell id="jfRTJ_0rn66j7NU5pKJY-64" value="&lt;font face=&quot;helvetica&quot;&gt;jars do hibernate + jars que o hibernate precisa como dependência&lt;/font&gt;" style="rounded=0;whiteSpace=wrap;html=1;fillColor=#fff2cc;strokeColor=#d6b656;" vertex="1" parent="1">
          <mxGeometry x="1107" y="1015" width="120" height="60" as="geometry" />
        </mxCell>
        <mxCell id="jfRTJ_0rn66j7NU5pKJY-72" style="edgeStyle=orthogonalEdgeStyle;rounded=0;orthogonalLoop=1;jettySize=auto;html=1;entryX=0;entryY=0.5;entryDx=0;entryDy=0;fontSize=24;" edge="1" parent="1" source="jfRTJ_0rn66j7NU5pKJY-66" target="jfRTJ_0rn66j7NU5pKJY-71">
          <mxGeometry relative="1" as="geometry" />
        </mxCell>
        <mxCell id="jfRTJ_0rn66j7NU5pKJY-74" style="edgeStyle=orthogonalEdgeStyle;rounded=0;orthogonalLoop=1;jettySize=auto;html=1;entryX=0;entryY=0.5;entryDx=0;entryDy=0;fontSize=24;" edge="1" parent="1" source="jfRTJ_0rn66j7NU5pKJY-66" target="jfRTJ_0rn66j7NU5pKJY-73">
          <mxGeometry relative="1" as="geometry" />
        </mxCell>
        <mxCell id="jfRTJ_0rn66j7NU5pKJY-66" value="versão mais recente = preferêncial" style="text;html=1;strokeColor=#9673a6;align=center;verticalAlign=middle;whiteSpace=wrap;rounded=0;fontSize=24;fillColor=#e1d5e7;" vertex="1" parent="1">
          <mxGeometry x="1253.5" y="1130" width="336.5" height="70" as="geometry" />
        </mxCell>
        <mxCell id="jfRTJ_0rn66j7NU5pKJY-70" style="edgeStyle=orthogonalEdgeStyle;rounded=0;orthogonalLoop=1;jettySize=auto;html=1;entryX=0.5;entryY=1;entryDx=0;entryDy=0;fontSize=24;" edge="1" parent="1" source="jfRTJ_0rn66j7NU5pKJY-69" target="jfRTJ_0rn66j7NU5pKJY-64">
          <mxGeometry relative="1" as="geometry" />
        </mxCell>
        <mxCell id="jfRTJ_0rn66j7NU5pKJY-69" value="&lt;font face=&quot;helvetica&quot;&gt;meu projeto&lt;/font&gt;" style="rounded=0;whiteSpace=wrap;html=1;fillColor=#fff2cc;strokeColor=#d6b656;" vertex="1" parent="1">
          <mxGeometry x="987" y="1160" width="120" height="60" as="geometry" />
        </mxCell>
        <mxCell id="jfRTJ_0rn66j7NU5pKJY-71" value="Árvore de dependências" style="text;html=1;strokeColor=#9673a6;align=center;verticalAlign=middle;whiteSpace=wrap;rounded=0;fontSize=24;fillColor=#e1d5e7;" vertex="1" parent="1">
          <mxGeometry x="1590" y="1230" width="336.5" height="70" as="geometry" />
        </mxCell>
        <mxCell id="jfRTJ_0rn66j7NU5pKJY-73" value="Pode acabar escrevendo no pom essa preferência" style="text;html=1;strokeColor=#9673a6;align=center;verticalAlign=middle;whiteSpace=wrap;rounded=0;fontSize=24;fillColor=#e1d5e7;" vertex="1" parent="1">
          <mxGeometry x="1710" y="1130" width="320" height="70" as="geometry" />
        </mxCell>
        <mxCell id="jfRTJ_0rn66j7NU5pKJY-77" style="edgeStyle=orthogonalEdgeStyle;rounded=0;orthogonalLoop=1;jettySize=auto;html=1;fontSize=24;" edge="1" parent="1" source="jfRTJ_0rn66j7NU5pKJY-75" target="jfRTJ_0rn66j7NU5pKJY-76">
          <mxGeometry relative="1" as="geometry" />
        </mxCell>
        <mxCell id="jfRTJ_0rn66j7NU5pKJY-78" value="compilação - javac" style="edgeLabel;html=1;align=center;verticalAlign=middle;resizable=0;points=[];fontSize=16;" vertex="1" connectable="0" parent="jfRTJ_0rn66j7NU5pKJY-77">
          <mxGeometry x="-0.3821" y="1" relative="1" as="geometry">
            <mxPoint x="-1" y="9.17" as="offset" />
          </mxGeometry>
        </mxCell>
        <mxCell id="jfRTJ_0rn66j7NU5pKJY-75" value="MeuPrograma.java" style="rounded=0;whiteSpace=wrap;html=1;" vertex="1" parent="1">
          <mxGeometry x="30" y="360" width="120" height="60" as="geometry" />
        </mxCell>
        <mxCell id="jfRTJ_0rn66j7NU5pKJY-80" style="edgeStyle=orthogonalEdgeStyle;rounded=0;orthogonalLoop=1;jettySize=auto;html=1;entryX=0.5;entryY=0;entryDx=0;entryDy=0;fontSize=16;" edge="1" parent="1" source="jfRTJ_0rn66j7NU5pKJY-76" target="jfRTJ_0rn66j7NU5pKJY-79">
          <mxGeometry relative="1" as="geometry" />
        </mxCell>
        <mxCell id="jfRTJ_0rn66j7NU5pKJY-81" value="executar na jvm - java" style="edgeLabel;html=1;align=center;verticalAlign=middle;resizable=0;points=[];fontSize=16;" vertex="1" connectable="0" parent="jfRTJ_0rn66j7NU5pKJY-80">
          <mxGeometry x="-0.3581" relative="1" as="geometry">
            <mxPoint y="14.57" as="offset" />
          </mxGeometry>
        </mxCell>
        <mxCell id="jfRTJ_0rn66j7NU5pKJY-76" value="MeuPrograma.class" style="rounded=0;whiteSpace=wrap;html=1;" vertex="1" parent="1">
          <mxGeometry x="30" y="520" width="120" height="60" as="geometry" />
        </mxCell>
        <mxCell id="jfRTJ_0rn66j7NU5pKJY-79" value="&quot;Olá mundo&quot;" style="rounded=0;whiteSpace=wrap;html=1;" vertex="1" parent="1">
          <mxGeometry x="30" y="690" width="120" height="60" as="geometry" />
        </mxCell>
        <mxCell id="jfRTJ_0rn66j7NU5pKJY-84" style="edgeStyle=orthogonalEdgeStyle;rounded=0;orthogonalLoop=1;jettySize=auto;html=1;entryX=0.5;entryY=0;entryDx=0;entryDy=0;fontSize=16;" edge="1" parent="1" source="jfRTJ_0rn66j7NU5pKJY-82" target="jfRTJ_0rn66j7NU5pKJY-83">
          <mxGeometry relative="1" as="geometry" />
        </mxCell>
        <mxCell id="jfRTJ_0rn66j7NU5pKJY-82" value="Verificar se a sintaxe está correta" style="rounded=0;whiteSpace=wrap;html=1;" vertex="1" parent="1">
          <mxGeometry x="230" y="360" width="120" height="60" as="geometry" />
        </mxCell>
        <mxCell id="jfRTJ_0rn66j7NU5pKJY-86" style="edgeStyle=orthogonalEdgeStyle;rounded=0;orthogonalLoop=1;jettySize=auto;html=1;fontSize=16;" edge="1" parent="1" source="jfRTJ_0rn66j7NU5pKJY-83" target="jfRTJ_0rn66j7NU5pKJY-85">
          <mxGeometry relative="1" as="geometry" />
        </mxCell>
        <mxCell id="jfRTJ_0rn66j7NU5pKJY-83" value="Verificar se as dependências estão disponíveis" style="rounded=0;whiteSpace=wrap;html=1;" vertex="1" parent="1">
          <mxGeometry x="230" y="460" width="120" height="60" as="geometry" />
        </mxCell>
        <mxCell id="jfRTJ_0rn66j7NU5pKJY-88" style="edgeStyle=orthogonalEdgeStyle;rounded=0;orthogonalLoop=1;jettySize=auto;html=1;entryX=0.5;entryY=0;entryDx=0;entryDy=0;fontSize=16;" edge="1" parent="1" source="jfRTJ_0rn66j7NU5pKJY-85" target="jfRTJ_0rn66j7NU5pKJY-87">
          <mxGeometry relative="1" as="geometry" />
        </mxCell>
        <mxCell id="jfRTJ_0rn66j7NU5pKJY-85" value="Verificar se o programa está usando as dependências de forma correta" style="rounded=0;whiteSpace=wrap;html=1;" vertex="1" parent="1">
          <mxGeometry x="230" y="560" width="120" height="80" as="geometry" />
        </mxCell>
        <mxCell id="jfRTJ_0rn66j7NU5pKJY-90" style="edgeStyle=orthogonalEdgeStyle;rounded=0;orthogonalLoop=1;jettySize=auto;html=1;fontSize=16;" edge="1" parent="1" source="jfRTJ_0rn66j7NU5pKJY-87" target="jfRTJ_0rn66j7NU5pKJY-89">
          <mxGeometry relative="1" as="geometry" />
        </mxCell>
        <mxCell id="jfRTJ_0rn66j7NU5pKJY-87" value="Compilação" style="rounded=0;whiteSpace=wrap;html=1;" vertex="1" parent="1">
          <mxGeometry x="230" y="700" width="120" height="40" as="geometry" />
        </mxCell>
        <mxCell id="jfRTJ_0rn66j7NU5pKJY-92" style="edgeStyle=orthogonalEdgeStyle;rounded=0;orthogonalLoop=1;jettySize=auto;html=1;fontSize=16;" edge="1" parent="1" source="jfRTJ_0rn66j7NU5pKJY-89" target="jfRTJ_0rn66j7NU5pKJY-91">
          <mxGeometry relative="1" as="geometry" />
        </mxCell>
        <mxCell id="jfRTJ_0rn66j7NU5pKJY-89" value="Verificação do bytecode" style="rounded=0;whiteSpace=wrap;html=1;" vertex="1" parent="1">
          <mxGeometry x="230" y="790" width="120" height="40" as="geometry" />
        </mxCell>
        <mxCell id="jfRTJ_0rn66j7NU5pKJY-94" style="edgeStyle=orthogonalEdgeStyle;rounded=0;orthogonalLoop=1;jettySize=auto;html=1;fontSize=16;" edge="1" parent="1" source="jfRTJ_0rn66j7NU5pKJY-91" target="jfRTJ_0rn66j7NU5pKJY-93">
          <mxGeometry relative="1" as="geometry" />
        </mxCell>
        <mxCell id="jfRTJ_0rn66j7NU5pKJY-105" style="edgeStyle=orthogonalEdgeStyle;rounded=0;orthogonalLoop=1;jettySize=auto;html=1;entryX=0;entryY=0.5;entryDx=0;entryDy=0;fontSize=16;" edge="1" parent="1" source="jfRTJ_0rn66j7NU5pKJY-91" target="jfRTJ_0rn66j7NU5pKJY-104">
          <mxGeometry relative="1" as="geometry" />
        </mxCell>
        <mxCell id="jfRTJ_0rn66j7NU5pKJY-91" value="Fazer algum teste automatizado" style="rounded=0;whiteSpace=wrap;html=1;" vertex="1" parent="1">
          <mxGeometry x="230" y="880" width="120" height="40" as="geometry" />
        </mxCell>
        <mxCell id="jfRTJ_0rn66j7NU5pKJY-96" style="edgeStyle=orthogonalEdgeStyle;rounded=0;orthogonalLoop=1;jettySize=auto;html=1;fontSize=16;entryX=0.5;entryY=0;entryDx=0;entryDy=0;exitX=0;exitY=0.5;exitDx=0;exitDy=0;" edge="1" parent="1" source="jfRTJ_0rn66j7NU5pKJY-93" target="jfRTJ_0rn66j7NU5pKJY-95">
          <mxGeometry relative="1" as="geometry">
            <mxPoint x="180" y="1040" as="targetPoint" />
          </mxGeometry>
        </mxCell>
        <mxCell id="jfRTJ_0rn66j7NU5pKJY-99" style="edgeStyle=orthogonalEdgeStyle;rounded=0;orthogonalLoop=1;jettySize=auto;html=1;entryX=0.5;entryY=0;entryDx=0;entryDy=0;fontSize=16;" edge="1" parent="1" source="jfRTJ_0rn66j7NU5pKJY-93" target="jfRTJ_0rn66j7NU5pKJY-98">
          <mxGeometry relative="1" as="geometry" />
        </mxCell>
        <mxCell id="jfRTJ_0rn66j7NU5pKJY-120" style="edgeStyle=orthogonalEdgeStyle;rounded=0;orthogonalLoop=1;jettySize=auto;html=1;entryX=1;entryY=0.5;entryDx=0;entryDy=0;fontSize=16;" edge="1" parent="1" source="jfRTJ_0rn66j7NU5pKJY-93" target="jfRTJ_0rn66j7NU5pKJY-114">
          <mxGeometry relative="1" as="geometry">
            <Array as="points">
              <mxPoint x="290" y="1168" />
              <mxPoint x="141" y="1168" />
            </Array>
          </mxGeometry>
        </mxCell>
        <mxCell id="jfRTJ_0rn66j7NU5pKJY-93" value="Empacotar&lt;br&gt;war, jar ..." style="rounded=0;whiteSpace=wrap;html=1;" vertex="1" parent="1">
          <mxGeometry x="230" y="970" width="120" height="40" as="geometry" />
        </mxCell>
        <mxCell id="jfRTJ_0rn66j7NU5pKJY-95" value="Instalar" style="rounded=0;whiteSpace=wrap;html=1;fillColor=#e1d5e7;strokeColor=#9673a6;" vertex="1" parent="1">
          <mxGeometry x="60" y="1050" width="120" height="40" as="geometry" />
        </mxCell>
        <mxCell id="jfRTJ_0rn66j7NU5pKJY-102" style="edgeStyle=orthogonalEdgeStyle;rounded=0;orthogonalLoop=1;jettySize=auto;html=1;fontSize=16;" edge="1" parent="1" source="jfRTJ_0rn66j7NU5pKJY-98" target="jfRTJ_0rn66j7NU5pKJY-101">
          <mxGeometry relative="1" as="geometry" />
        </mxCell>
        <mxCell id="jfRTJ_0rn66j7NU5pKJY-103" style="edgeStyle=orthogonalEdgeStyle;rounded=0;orthogonalLoop=1;jettySize=auto;html=1;entryX=0.5;entryY=0;entryDx=0;entryDy=0;fontSize=16;" edge="1" parent="1" source="jfRTJ_0rn66j7NU5pKJY-98" target="jfRTJ_0rn66j7NU5pKJY-100">
          <mxGeometry relative="1" as="geometry" />
        </mxCell>
        <mxCell id="jfRTJ_0rn66j7NU5pKJY-98" value="Deploy" style="rounded=0;whiteSpace=wrap;html=1;" vertex="1" parent="1">
          <mxGeometry x="380" y="1050" width="120" height="40" as="geometry" />
        </mxCell>
        <mxCell id="jfRTJ_0rn66j7NU5pKJY-100" value="Subir em um servidor de aplicação" style="rounded=0;whiteSpace=wrap;html=1;fillColor=#e1d5e7;strokeColor=#9673a6;" vertex="1" parent="1">
          <mxGeometry x="380" y="1140" width="120" height="40" as="geometry" />
        </mxCell>
        <mxCell id="jfRTJ_0rn66j7NU5pKJY-101" value="Subir em repositório de artefatos" style="rounded=0;whiteSpace=wrap;html=1;fillColor=#e1d5e7;strokeColor=#9673a6;" vertex="1" parent="1">
          <mxGeometry x="560" y="1050" width="120" height="40" as="geometry" />
        </mxCell>
        <mxCell id="jfRTJ_0rn66j7NU5pKJY-104" value="Gerar os Javadocs&lt;br&gt;(html, css...)" style="rounded=0;whiteSpace=wrap;html=1;fillColor=#e1d5e7;strokeColor=#9673a6;" vertex="1" parent="1">
          <mxGeometry x="460" y="880" width="120" height="40" as="geometry" />
        </mxCell>
        <mxCell id="jfRTJ_0rn66j7NU5pKJY-108" style="edgeStyle=orthogonalEdgeStyle;rounded=0;orthogonalLoop=1;jettySize=auto;html=1;entryX=0;entryY=0.5;entryDx=0;entryDy=0;fontSize=16;exitX=0.455;exitY=0.995;exitDx=0;exitDy=0;exitPerimeter=0;" edge="1" parent="1" source="jfRTJ_0rn66j7NU5pKJY-106" target="jfRTJ_0rn66j7NU5pKJY-107">
          <mxGeometry relative="1" as="geometry" />
        </mxCell>
        <mxCell id="jfRTJ_0rn66j7NU5pKJY-106" value="Ferramentas de gerenciamento de build&lt;br&gt;- Maven&lt;br&gt;- Gradle&lt;br&gt;- Ant" style="rounded=0;whiteSpace=wrap;html=1;fillColor=#f8cecc;strokeColor=#b85450;verticalAlign=top;" vertex="1" parent="1">
          <mxGeometry x="420" y="560" width="130" height="90" as="geometry" />
        </mxCell>
        <mxCell id="jfRTJ_0rn66j7NU5pKJY-107" value="Ciclo de vida da nossa aplicação" style="rounded=0;whiteSpace=wrap;html=1;fillColor=#f8cecc;strokeColor=#b85450;verticalAlign=top;" vertex="1" parent="1">
          <mxGeometry x="600" y="690" width="130" height="50" as="geometry" />
        </mxCell>
        <mxCell id="jfRTJ_0rn66j7NU5pKJY-109" value="" style="shape=image;verticalLabelPosition=bottom;labelBackgroundColor=#ffffff;verticalAlign=top;aspect=fixed;imageAspect=0;image=https://miro.medium.com/max/1141/1*_-K1nhOZhHeCxW1nlZ9VBw.png;" vertex="1" parent="1">
          <mxGeometry x="-90" y="1250" width="1077.81" height="756.54" as="geometry" />
        </mxCell>
        <mxCell id="jfRTJ_0rn66j7NU5pKJY-110" value="" style="shape=image;verticalLabelPosition=bottom;labelBackgroundColor=#ffffff;verticalAlign=top;aspect=fixed;imageAspect=0;image=https://techytopics.files.wordpress.com/2018/07/maven-lifecycles-n-goals-graph1.png;" vertex="1" parent="1">
          <mxGeometry x="-89.99999999999993" y="2050" width="901.33" height="520" as="geometry" />
        </mxCell>
        <mxCell id="jfRTJ_0rn66j7NU5pKJY-111" value="Comandos default&lt;br&gt;&lt;br&gt;$ mvn clean -&amp;gt; limpa os artefatos&lt;br&gt;$ mvn compile -&amp;gt; compilar&lt;br&gt;$ mvn validate -&amp;gt; ver se está tudo ok&lt;br&gt;&lt;br&gt;$ mvn package -&amp;gt; empacotar as coisas&lt;br&gt;&lt;br&gt;$ mvn test -&amp;gt; vai fazer testes de unidade" style="rounded=0;whiteSpace=wrap;html=1;fillColor=none;fontSize=16;align=left;verticalAlign=top;" vertex="1" parent="1">
          <mxGeometry x="1047.9" y="1252" width="322.1" height="208" as="geometry" />
        </mxCell>
        <mxCell id="jfRTJ_0rn66j7NU5pKJY-122" style="edgeStyle=orthogonalEdgeStyle;rounded=0;orthogonalLoop=1;jettySize=auto;html=1;entryX=0;entryY=0.5;entryDx=0;entryDy=0;fontSize=25;" edge="1" parent="1" source="jfRTJ_0rn66j7NU5pKJY-112" target="jfRTJ_0rn66j7NU5pKJY-113">
          <mxGeometry relative="1" as="geometry" />
        </mxCell>
        <mxCell id="jfRTJ_0rn66j7NU5pKJY-124" style="edgeStyle=orthogonalEdgeStyle;rounded=0;orthogonalLoop=1;jettySize=auto;html=1;entryX=0;entryY=0.5;entryDx=0;entryDy=0;fontSize=25;" edge="1" parent="1" source="jfRTJ_0rn66j7NU5pKJY-112" target="jfRTJ_0rn66j7NU5pKJY-123">
          <mxGeometry relative="1" as="geometry" />
        </mxCell>
        <mxCell id="jfRTJ_0rn66j7NU5pKJY-112" value="Plugins do maven" style="rounded=0;whiteSpace=wrap;html=1;fillColor=none;fontSize=16;" vertex="1" parent="1">
          <mxGeometry x="1047.9" y="1500" width="120" height="60" as="geometry" />
        </mxCell>
        <mxCell id="jfRTJ_0rn66j7NU5pKJY-113" value="dependency" style="rounded=0;whiteSpace=wrap;html=1;fillColor=none;fontSize=16;" vertex="1" parent="1">
          <mxGeometry x="1148.95" y="1580" width="120" height="60" as="geometry" />
        </mxCell>
        <mxCell id="jfRTJ_0rn66j7NU5pKJY-117" style="edgeStyle=orthogonalEdgeStyle;rounded=0;orthogonalLoop=1;jettySize=auto;html=1;fontSize=16;" edge="1" parent="1" source="jfRTJ_0rn66j7NU5pKJY-114" target="jfRTJ_0rn66j7NU5pKJY-116">
          <mxGeometry relative="1" as="geometry" />
        </mxCell>
        <mxCell id="jfRTJ_0rn66j7NU5pKJY-114" value="war&lt;br style=&quot;font-size: 25px&quot;&gt;Fat war" style="rounded=0;whiteSpace=wrap;html=1;fillColor=#e1d5e7;strokeColor=#9673a6;fontSize=25;" vertex="1" parent="1">
          <mxGeometry x="-67.72" y="1130" width="120" height="75" as="geometry" />
        </mxCell>
        <mxCell id="jfRTJ_0rn66j7NU5pKJY-116" value="" style="points=[];aspect=fixed;html=1;align=center;shadow=0;dashed=0;image;image=img/lib/allied_telesis/computer_and_terminals/Server_Desktop.svg;fillColor=none;fontSize=16;" vertex="1" parent="1">
          <mxGeometry x="-190" y="930" width="122.28" height="155" as="geometry" />
        </mxCell>
        <mxCell id="jfRTJ_0rn66j7NU5pKJY-121" value="" style="edgeStyle=orthogonalEdgeStyle;rounded=0;orthogonalLoop=1;jettySize=auto;html=1;fontSize=25;exitX=0.5;exitY=1;exitDx=0;exitDy=0;" edge="1" parent="1" source="jfRTJ_0rn66j7NU5pKJY-118" target="jfRTJ_0rn66j7NU5pKJY-116">
          <mxGeometry relative="1" as="geometry" />
        </mxCell>
        <mxCell id="jfRTJ_0rn66j7NU5pKJY-118" value="" style="shape=image;html=1;verticalAlign=top;verticalLabelPosition=bottom;labelBackgroundColor=#ffffff;imageAspect=0;aspect=fixed;image=https://cdn4.iconfinder.com/data/icons/free-retina-icon-set/60/Cat_head.png;fillColor=none;fontSize=16;" vertex="1" parent="1">
          <mxGeometry x="-320" y="880" width="60" height="60" as="geometry" />
        </mxCell>
        <mxCell id="jfRTJ_0rn66j7NU5pKJY-126" style="edgeStyle=orthogonalEdgeStyle;rounded=0;orthogonalLoop=1;jettySize=auto;html=1;entryX=0;entryY=0.5;entryDx=0;entryDy=0;fontSize=25;" edge="1" parent="1" source="jfRTJ_0rn66j7NU5pKJY-123" target="jfRTJ_0rn66j7NU5pKJY-125">
          <mxGeometry relative="1" as="geometry" />
        </mxCell>
        <mxCell id="jfRTJ_0rn66j7NU5pKJY-123" value="jetty" style="rounded=0;whiteSpace=wrap;html=1;fillColor=none;fontSize=16;" vertex="1" parent="1">
          <mxGeometry x="1148.95" y="1690" width="120" height="60" as="geometry" />
        </mxCell>
        <mxCell id="jfRTJ_0rn66j7NU5pKJY-125" value="jetty:run" style="rounded=0;whiteSpace=wrap;html=1;fillColor=none;fontSize=16;" vertex="1" parent="1">
          <mxGeometry x="1390" y="1690" width="120" height="60" as="geometry" />
        </mxCell>
      </root>
    </mxGraphModel>
  </diagram>
</mxfile>
